<mxfile host="65bd71144e">
    <diagram id="lPxEyuHFHUmqc8kWkA4o" name="Page-1">
        <mxGraphModel dx="2474" dy="1598" grid="1" gridSize="10" guides="1" tooltips="1" connect="1" arrows="1" fold="1" page="1" pageScale="1" pageWidth="850" pageHeight="1100" math="0" shadow="0">
            <root>
                <mxCell id="0"/>
                <mxCell id="1" parent="0"/>
                <mxCell id="6" value="给定一个最终实体证书和 x509 证书验证选项，验证该最终实体证书，得到一条验证证书链，证书链中的第一个证书是最终实体证书自己，最后一个证书是根 CA 证书。" style="text;html=1;strokeColor=none;fillColor=none;align=left;verticalAlign=middle;whiteSpace=wrap;rounded=0;fontFamily=Helvetica;fontSize=13;" vertex="1" parent="1">
                    <mxGeometry x="510" y="80" width="310" height="30" as="geometry"/>
                </mxCell>
                <mxCell id="8" value="调用 getUniqueValidationChain 方法返回验证链，检查验证链的长度是否不小于 2，小于 2 的话就代表最终实体证书是根 CA 证书，这是不允许的，其次就是最终实体证书的父级证书是否是 MSP 的证书树中的内部节点，如果是的话，则也是不允许的。最后原封不动的返回验证链。" style="text;html=1;strokeColor=none;fillColor=none;align=left;verticalAlign=middle;whiteSpace=wrap;rounded=0;fontFamily=Helvetica;fontSize=13;" vertex="1" parent="1">
                    <mxGeometry x="510" y="260" width="310" height="30" as="geometry"/>
                </mxCell>
                <mxCell id="12" value="&lt;font style=&quot;font-size: 12px;&quot;&gt;getValidationChain 相比于 getUniqueValidationChain 就多了一些验证步骤&lt;/font&gt;" style="shape=callout;whiteSpace=wrap;html=1;perimeter=calloutPerimeter;fontFamily=Helvetica;fontSize=13;position2=1;size=30;position=0.67;fillColor=#f5f5f5;strokeColor=#666666;fontColor=#333333;dashed=1;base=30;" vertex="1" parent="1">
                    <mxGeometry x="10" y="150" width="300" height="70" as="geometry"/>
                </mxCell>
                <mxCell id="14" value="&lt;b&gt;方法名&lt;/b&gt;" style="rounded=0;whiteSpace=wrap;html=1;fontFamily=Helvetica;fontSize=12;fillColor=#ffe6cc;strokeColor=#d79b00;" vertex="1" parent="1">
                    <mxGeometry x="120" y="50" width="60" height="30" as="geometry"/>
                </mxCell>
                <mxCell id="15" value="&lt;span style=&quot;font-size: 13px;&quot;&gt;getUniqueValidationChain&lt;/span&gt;" style="rounded=0;whiteSpace=wrap;html=1;fontFamily=Helvetica;fontSize=12;fillColor=#e1d5e7;strokeColor=#9673a6;fillStyle=auto;" vertex="1" parent="1">
                    <mxGeometry x="180" y="50" width="270" height="30" as="geometry"/>
                </mxCell>
                <mxCell id="16" value="参数 1" style="rounded=0;whiteSpace=wrap;html=1;fontFamily=Helvetica;fontSize=12;fillColor=#ffe6cc;strokeColor=#d79b00;" vertex="1" parent="1">
                    <mxGeometry x="120" y="80" width="60" height="30" as="geometry"/>
                </mxCell>
                <mxCell id="17" value="cert *x509.Certificate" style="rounded=0;whiteSpace=wrap;html=1;fontFamily=Helvetica;fontSize=12;fillColor=#e1d5e7;strokeColor=#9673a6;fillStyle=auto;" vertex="1" parent="1">
                    <mxGeometry x="180" y="80" width="270" height="30" as="geometry"/>
                </mxCell>
                <mxCell id="18" value="参数 2" style="rounded=0;whiteSpace=wrap;html=1;fontFamily=Helvetica;fontSize=12;fillColor=#e1d5e7;strokeColor=#9673a6;fillStyle=auto;" vertex="1" parent="1">
                    <mxGeometry x="120" y="110" width="60" height="30" as="geometry"/>
                </mxCell>
                <mxCell id="19" value="opts x509.VerifyOptions" style="rounded=0;whiteSpace=wrap;html=1;fontFamily=Helvetica;fontSize=12;fillColor=#e1d5e7;strokeColor=#9673a6;fillStyle=auto;" vertex="1" parent="1">
                    <mxGeometry x="180" y="110" width="270" height="30" as="geometry"/>
                </mxCell>
                <mxCell id="20" value="方法名" style="rounded=0;whiteSpace=wrap;html=1;fontFamily=Helvetica;fontSize=12;fillColor=#e1d5e7;strokeColor=#9673a6;fillStyle=auto;" vertex="1" parent="1">
                    <mxGeometry x="120" y="50" width="60" height="30" as="geometry"/>
                </mxCell>
                <mxCell id="21" value="参数 1" style="rounded=0;whiteSpace=wrap;html=1;fontFamily=Helvetica;fontSize=12;fillColor=#e1d5e7;strokeColor=#9673a6;fillStyle=auto;" vertex="1" parent="1">
                    <mxGeometry x="120" y="80" width="60" height="30" as="geometry"/>
                </mxCell>
                <mxCell id="22" value="&lt;b&gt;方法名&lt;/b&gt;" style="rounded=0;whiteSpace=wrap;html=1;fontFamily=Helvetica;fontSize=12;fillColor=#ffe6cc;strokeColor=#d79b00;" vertex="1" parent="1">
                    <mxGeometry x="120" y="230" width="60" height="30" as="geometry"/>
                </mxCell>
                <mxCell id="31" style="edgeStyle=orthogonalEdgeStyle;curved=1;html=1;exitX=0.5;exitY=0;exitDx=0;exitDy=0;entryX=0.5;entryY=1;entryDx=0;entryDy=0;fontFamily=Helvetica;fontSize=12;" edge="1" parent="1" source="23" target="19">
                    <mxGeometry relative="1" as="geometry"/>
                </mxCell>
                <mxCell id="23" value="&lt;span style=&quot;font-size: 13px;&quot;&gt;getValidationChain&lt;/span&gt;" style="rounded=0;whiteSpace=wrap;html=1;fontFamily=Helvetica;fontSize=12;fillColor=#e1d5e7;strokeColor=#9673a6;fillStyle=auto;" vertex="1" parent="1">
                    <mxGeometry x="180" y="230" width="270" height="30" as="geometry"/>
                </mxCell>
                <mxCell id="24" value="参数 1" style="rounded=0;whiteSpace=wrap;html=1;fontFamily=Helvetica;fontSize=12;fillColor=#ffe6cc;strokeColor=#d79b00;" vertex="1" parent="1">
                    <mxGeometry x="120" y="260" width="60" height="30" as="geometry"/>
                </mxCell>
                <mxCell id="25" value="cert *x509.Certificate" style="rounded=0;whiteSpace=wrap;html=1;fontFamily=Helvetica;fontSize=12;fillColor=#e1d5e7;strokeColor=#9673a6;fillStyle=auto;" vertex="1" parent="1">
                    <mxGeometry x="180" y="260" width="270" height="30" as="geometry"/>
                </mxCell>
                <mxCell id="26" value="参数 2" style="rounded=0;whiteSpace=wrap;html=1;fontFamily=Helvetica;fontSize=12;fillColor=#e1d5e7;strokeColor=#9673a6;fillStyle=auto;" vertex="1" parent="1">
                    <mxGeometry x="120" y="290" width="60" height="30" as="geometry"/>
                </mxCell>
                <mxCell id="27" value="isIntermediateChain bool" style="rounded=0;whiteSpace=wrap;html=1;fontFamily=Helvetica;fontSize=12;fillColor=#e1d5e7;strokeColor=#9673a6;fillStyle=auto;" vertex="1" parent="1">
                    <mxGeometry x="180" y="290" width="270" height="30" as="geometry"/>
                </mxCell>
                <mxCell id="28" value="方法名" style="rounded=0;whiteSpace=wrap;html=1;fontFamily=Helvetica;fontSize=12;fillColor=#e1d5e7;strokeColor=#9673a6;fillStyle=auto;" vertex="1" parent="1">
                    <mxGeometry x="120" y="230" width="60" height="30" as="geometry"/>
                </mxCell>
                <mxCell id="29" value="参数 1" style="rounded=0;whiteSpace=wrap;html=1;fontFamily=Helvetica;fontSize=12;fillColor=#e1d5e7;strokeColor=#9673a6;fillStyle=auto;" vertex="1" parent="1">
                    <mxGeometry x="120" y="260" width="60" height="30" as="geometry"/>
                </mxCell>
                <mxCell id="32" value="&lt;b&gt;方法名&lt;/b&gt;" style="rounded=0;whiteSpace=wrap;html=1;fontFamily=Helvetica;fontSize=12;fillColor=#ffe6cc;strokeColor=#d79b00;" vertex="1" parent="1">
                    <mxGeometry x="120" y="410" width="60" height="30" as="geometry"/>
                </mxCell>
                <mxCell id="34" value="参数 1" style="rounded=0;whiteSpace=wrap;html=1;fontFamily=Helvetica;fontSize=12;fillColor=#ffe6cc;strokeColor=#d79b00;" vertex="1" parent="1">
                    <mxGeometry x="120" y="440" width="60" height="30" as="geometry"/>
                </mxCell>
                <mxCell id="35" value="id *identity" style="rounded=0;whiteSpace=wrap;html=1;fontFamily=Helvetica;fontSize=12;fillColor=#e1d5e7;strokeColor=#9673a6;fillStyle=auto;" vertex="1" parent="1">
                    <mxGeometry x="180" y="440" width="270" height="30" as="geometry"/>
                </mxCell>
                <mxCell id="38" value="方法名" style="rounded=0;whiteSpace=wrap;html=1;fontFamily=Helvetica;fontSize=12;fillColor=#e1d5e7;strokeColor=#9673a6;fillStyle=auto;" vertex="1" parent="1">
                    <mxGeometry x="120" y="410" width="60" height="30" as="geometry"/>
                </mxCell>
                <mxCell id="39" value="参数 1" style="rounded=0;whiteSpace=wrap;html=1;fontFamily=Helvetica;fontSize=12;fillColor=#e1d5e7;strokeColor=#9673a6;fillStyle=auto;" vertex="1" parent="1">
                    <mxGeometry x="120" y="440" width="60" height="30" as="geometry"/>
                </mxCell>
                <mxCell id="42" style="edgeStyle=orthogonalEdgeStyle;curved=1;html=1;exitX=0.5;exitY=0;exitDx=0;exitDy=0;entryX=0.5;entryY=1;entryDx=0;entryDy=0;fontFamily=Helvetica;fontSize=12;" edge="1" parent="1" source="40" target="27">
                    <mxGeometry relative="1" as="geometry"/>
                </mxCell>
                <mxCell id="40" value="&lt;span style=&quot;font-size: 13px;&quot;&gt;getCertificateChainForBCCSPIdentity&lt;/span&gt;" style="rounded=0;whiteSpace=wrap;html=1;fontFamily=Helvetica;fontSize=12;fillColor=#e1d5e7;strokeColor=#9673a6;fillStyle=auto;" vertex="1" parent="1">
                    <mxGeometry x="180" y="410" width="270" height="30" as="geometry"/>
                </mxCell>
                <mxCell id="43" value="给定一个身份 *identity，该身份结构中含有一个 x509 证书实例，在该证书实例不是 CA 证书的情况下，获取该证书的验证链。" style="text;html=1;strokeColor=none;fillColor=none;align=left;verticalAlign=middle;whiteSpace=wrap;rounded=0;fontFamily=Helvetica;fontSize=13;" vertex="1" parent="1">
                    <mxGeometry x="510" y="430" width="310" height="30" as="geometry"/>
                </mxCell>
                <mxCell id="48" value="&lt;font style=&quot;border-color: var(--border-color); font-size: 12px;&quot;&gt;基本上就是直接调用&amp;nbsp;&lt;/font&gt;&lt;span style=&quot;border-color: var(--border-color); color: rgb(0, 0, 0);&quot;&gt;getValidationChain 方法，并返回调用结果&lt;/span&gt;" style="shape=callout;whiteSpace=wrap;html=1;perimeter=calloutPerimeter;fontFamily=Helvetica;fontSize=13;position2=1;size=30;position=0.67;fillColor=#f5f5f5;strokeColor=#666666;fontColor=#333333;dashed=1;base=30;" vertex="1" parent="1">
                    <mxGeometry x="10" y="330" width="300" height="70" as="geometry"/>
                </mxCell>
                <mxCell id="50" value="&lt;b&gt;方法名&lt;/b&gt;" style="rounded=0;whiteSpace=wrap;html=1;fontFamily=Helvetica;fontSize=12;fillColor=#ffe6cc;strokeColor=#d79b00;" vertex="1" parent="1">
                    <mxGeometry x="280" y="560" width="60" height="30" as="geometry"/>
                </mxCell>
                <mxCell id="51" value="参数 1" style="rounded=0;whiteSpace=wrap;html=1;fontFamily=Helvetica;fontSize=12;fillColor=#ffe6cc;strokeColor=#d79b00;" vertex="1" parent="1">
                    <mxGeometry x="280" y="590" width="60" height="30" as="geometry"/>
                </mxCell>
                <mxCell id="52" value="id Identity" style="rounded=0;whiteSpace=wrap;html=1;fontFamily=Helvetica;fontSize=12;fillColor=#e1d5e7;strokeColor=#9673a6;fillStyle=auto;" vertex="1" parent="1">
                    <mxGeometry x="340" y="590" width="150" height="30" as="geometry"/>
                </mxCell>
                <mxCell id="53" value="方法名" style="rounded=0;whiteSpace=wrap;html=1;fontFamily=Helvetica;fontSize=12;fillColor=#e1d5e7;strokeColor=#9673a6;fillStyle=auto;" vertex="1" parent="1">
                    <mxGeometry x="280" y="560" width="60" height="30" as="geometry"/>
                </mxCell>
                <mxCell id="54" value="参数 1" style="rounded=0;whiteSpace=wrap;html=1;fontFamily=Helvetica;fontSize=12;fillColor=#e1d5e7;strokeColor=#9673a6;fillStyle=auto;" vertex="1" parent="1">
                    <mxGeometry x="280" y="590" width="60" height="30" as="geometry"/>
                </mxCell>
                <mxCell id="57" style="html=1;exitX=0.25;exitY=0;exitDx=0;exitDy=0;entryX=0.73;entryY=1;entryDx=0;entryDy=0;entryPerimeter=0;fontFamily=Helvetica;fontSize=12;" edge="1" parent="1" source="55" target="35">
                    <mxGeometry relative="1" as="geometry"/>
                </mxCell>
                <mxCell id="55" value="&lt;span style=&quot;font-size: 13px;&quot;&gt;getCertificateChain&lt;/span&gt;" style="rounded=0;whiteSpace=wrap;html=1;fontFamily=Helvetica;fontSize=12;fillColor=#e1d5e7;strokeColor=#9673a6;fillStyle=auto;" vertex="1" parent="1">
                    <mxGeometry x="340" y="560" width="150" height="30" as="geometry"/>
                </mxCell>
                <mxCell id="56" value="给定一个身份 Identity，Identity 是一个接口，如果该接口的本质是 *identity，那么在进行类型断言后，直接调用&amp;nbsp;&lt;span style=&quot;text-align: center;&quot;&gt;getCertificateChainForBCCSPIdentity 方法&lt;/span&gt;。" style="text;html=1;strokeColor=none;fillColor=none;align=left;verticalAlign=middle;whiteSpace=wrap;rounded=0;fontFamily=Helvetica;fontSize=13;" vertex="1" parent="1">
                    <mxGeometry x="560" y="570" width="310" height="30" as="geometry"/>
                </mxCell>
                <mxCell id="58" value="&lt;b&gt;方法名&lt;/b&gt;" style="rounded=0;whiteSpace=wrap;html=1;fontFamily=Helvetica;fontSize=12;fillColor=#ffe6cc;strokeColor=#d79b00;" vertex="1" parent="1">
                    <mxGeometry x="250" y="780" width="60" height="30" as="geometry"/>
                </mxCell>
                <mxCell id="59" value="参数 1" style="rounded=0;whiteSpace=wrap;html=1;fontFamily=Helvetica;fontSize=12;fillColor=#ffe6cc;strokeColor=#d79b00;" vertex="1" parent="1">
                    <mxGeometry x="250" y="810" width="60" height="30" as="geometry"/>
                </mxCell>
                <mxCell id="60" value="id Identity" style="rounded=0;whiteSpace=wrap;html=1;fontFamily=Helvetica;fontSize=12;fillColor=#e1d5e7;strokeColor=#9673a6;fillStyle=auto;" vertex="1" parent="1">
                    <mxGeometry x="310" y="810" width="190" height="30" as="geometry"/>
                </mxCell>
                <mxCell id="61" value="方法名" style="rounded=0;whiteSpace=wrap;html=1;fontFamily=Helvetica;fontSize=12;fillColor=#e1d5e7;strokeColor=#9673a6;fillStyle=auto;" vertex="1" parent="1">
                    <mxGeometry x="250" y="780" width="60" height="30" as="geometry"/>
                </mxCell>
                <mxCell id="62" value="参数 1" style="rounded=0;whiteSpace=wrap;html=1;fontFamily=Helvetica;fontSize=12;fillColor=#e1d5e7;strokeColor=#9673a6;fillStyle=auto;" vertex="1" parent="1">
                    <mxGeometry x="250" y="810" width="60" height="30" as="geometry"/>
                </mxCell>
                <mxCell id="64" style="edgeStyle=none;html=1;exitX=0;exitY=0;exitDx=0;exitDy=0;entryX=0.5;entryY=1;entryDx=0;entryDy=0;fontFamily=Helvetica;fontSize=12;" edge="1" parent="1" source="63" target="54">
                    <mxGeometry relative="1" as="geometry"/>
                </mxCell>
                <mxCell id="63" value="&lt;span style=&quot;font-size: 13px;&quot;&gt;getCertificateChainIdentifier&lt;/span&gt;" style="rounded=0;whiteSpace=wrap;html=1;fontFamily=Helvetica;fontSize=12;fillColor=#e1d5e7;strokeColor=#9673a6;fillStyle=auto;" vertex="1" parent="1">
                    <mxGeometry x="310" y="780" width="190" height="30" as="geometry"/>
                </mxCell>
                <mxCell id="65" value="&lt;b&gt;方法名&lt;/b&gt;" style="rounded=0;whiteSpace=wrap;html=1;fontFamily=Helvetica;fontSize=12;fillColor=#ffe6cc;strokeColor=#d79b00;" vertex="1" parent="1">
                    <mxGeometry x="360" y="660" width="60" height="30" as="geometry"/>
                </mxCell>
                <mxCell id="66" value="参数 1" style="rounded=0;whiteSpace=wrap;html=1;fontFamily=Helvetica;fontSize=12;fillColor=#ffe6cc;strokeColor=#d79b00;" vertex="1" parent="1">
                    <mxGeometry x="360" y="690" width="60" height="30" as="geometry"/>
                </mxCell>
                <mxCell id="67" value="chain []*x509.Certificate" style="rounded=0;whiteSpace=wrap;html=1;fontFamily=Helvetica;fontSize=12;fillColor=#e1d5e7;strokeColor=#9673a6;fillStyle=auto;" vertex="1" parent="1">
                    <mxGeometry x="420" y="690" width="250" height="30" as="geometry"/>
                </mxCell>
                <mxCell id="68" value="方法名" style="rounded=0;whiteSpace=wrap;html=1;fontFamily=Helvetica;fontSize=12;fillColor=#e1d5e7;strokeColor=#9673a6;fillStyle=auto;" vertex="1" parent="1">
                    <mxGeometry x="360" y="660" width="60" height="30" as="geometry"/>
                </mxCell>
                <mxCell id="69" value="参数 1" style="rounded=0;whiteSpace=wrap;html=1;fontFamily=Helvetica;fontSize=12;fillColor=#e1d5e7;strokeColor=#9673a6;fillStyle=auto;" vertex="1" parent="1">
                    <mxGeometry x="360" y="690" width="60" height="30" as="geometry"/>
                </mxCell>
                <mxCell id="70" value="&lt;span style=&quot;font-size: 13px;&quot;&gt;getCertificateChainIdentifierFromChain&lt;/span&gt;" style="rounded=0;whiteSpace=wrap;html=1;fontFamily=Helvetica;fontSize=12;fillColor=#e1d5e7;strokeColor=#9673a6;fillStyle=auto;" vertex="1" parent="1">
                    <mxGeometry x="420" y="660" width="250" height="30" as="geometry"/>
                </mxCell>
                <mxCell id="75" value="" style="endArrow=classic;html=1;fontFamily=Helvetica;fontSize=12;exitX=0.401;exitY=0.022;exitDx=0;exitDy=0;entryX=0.437;entryY=1;entryDx=0;entryDy=0;entryPerimeter=0;exitPerimeter=0;" edge="1" parent="1" source="63" target="69">
                    <mxGeometry width="50" height="50" relative="1" as="geometry">
                        <mxPoint x="370" y="780" as="sourcePoint"/>
                        <mxPoint x="453" y="720" as="targetPoint"/>
                    </mxGeometry>
                </mxCell>
                <mxCell id="77" value="" style="endArrow=classic;html=1;strokeColor=#CC0066;fontFamily=Helvetica;fontSize=12;entryX=0.379;entryY=-0.076;entryDx=0;entryDy=0;entryPerimeter=0;" edge="1" parent="1" target="63">
                    <mxGeometry relative="1" as="geometry">
                        <mxPoint x="310" y="690" as="sourcePoint"/>
                        <mxPoint x="370" y="780" as="targetPoint"/>
                    </mxGeometry>
                </mxCell>
                <mxCell id="78" value="返回值 chain" style="edgeLabel;resizable=0;html=1;align=center;verticalAlign=middle;fillStyle=auto;fontFamily=Helvetica;fontSize=12;" connectable="0" vertex="1" parent="77">
                    <mxGeometry relative="1" as="geometry">
                        <mxPoint x="4" y="6" as="offset"/>
                    </mxGeometry>
                </mxCell>
                <mxCell id="81" value="给定一个身份接口 Identity，直接调用&amp;nbsp;&lt;span style=&quot;text-align: center;&quot;&gt;getCertificateChain 方法，然后将返回的证书链作为参数传递给&amp;nbsp;&lt;/span&gt;&lt;span style=&quot;text-align: center;&quot;&gt;getCertificateChainIdentifierFromChain 方法。&lt;/span&gt;" style="text;html=1;strokeColor=none;fillColor=none;align=left;verticalAlign=middle;whiteSpace=wrap;rounded=0;fontFamily=Helvetica;fontSize=13;" vertex="1" parent="1">
                    <mxGeometry x="560" y="790" width="310" height="30" as="geometry"/>
                </mxCell>
                <mxCell id="82" value="getCertificateChain 返回最终实体证书的验证链，验证链中第一个证书是最终实体证书自己，去掉验证链中的第一个证书，将剩下的链传递给&amp;nbsp;&lt;span style=&quot;text-align: center;&quot;&gt;getCertificateChainIdentifierFromChain 方法，然后该方法取一个哈希函数，计算传递进来的证书链的哈希值：H(cert1 || cert2 || ...)&lt;/span&gt;" style="text;html=1;strokeColor=none;fillColor=none;align=left;verticalAlign=middle;whiteSpace=wrap;rounded=0;fontFamily=Helvetica;fontSize=13;" vertex="1" parent="1">
                    <mxGeometry x="730" y="680" width="310" height="30" as="geometry"/>
                </mxCell>
                <mxCell id="83" value="&lt;b&gt;方法名&lt;/b&gt;" style="rounded=0;whiteSpace=wrap;html=1;fontFamily=Helvetica;fontSize=12;fillColor=#ffe6cc;strokeColor=#d79b00;" vertex="1" parent="1">
                    <mxGeometry x="30" y="560" width="60" height="30" as="geometry"/>
                </mxCell>
                <mxCell id="84" value="参数 1" style="rounded=0;whiteSpace=wrap;html=1;fontFamily=Helvetica;fontSize=12;fillColor=#ffe6cc;strokeColor=#d79b00;" vertex="1" parent="1">
                    <mxGeometry x="30" y="590" width="60" height="30" as="geometry"/>
                </mxCell>
                <mxCell id="85" value="id *identity" style="rounded=0;whiteSpace=wrap;html=1;fontFamily=Helvetica;fontSize=12;fillColor=#e1d5e7;strokeColor=#9673a6;fillStyle=auto;" vertex="1" parent="1">
                    <mxGeometry x="90" y="590" width="150" height="30" as="geometry"/>
                </mxCell>
                <mxCell id="86" value="方法名" style="rounded=0;whiteSpace=wrap;html=1;fontFamily=Helvetica;fontSize=12;fillColor=#e1d5e7;strokeColor=#9673a6;fillStyle=auto;" vertex="1" parent="1">
                    <mxGeometry x="30" y="560" width="60" height="30" as="geometry"/>
                </mxCell>
                <mxCell id="87" value="参数 1" style="rounded=0;whiteSpace=wrap;html=1;fontFamily=Helvetica;fontSize=12;fillColor=#e1d5e7;strokeColor=#9673a6;fillStyle=auto;" vertex="1" parent="1">
                    <mxGeometry x="30" y="590" width="60" height="30" as="geometry"/>
                </mxCell>
                <mxCell id="89" style="edgeStyle=none;html=1;exitX=0.75;exitY=0;exitDx=0;exitDy=0;entryX=0.087;entryY=0.983;entryDx=0;entryDy=0;entryPerimeter=0;strokeColor=#000000;fontFamily=Helvetica;fontSize=12;" edge="1" parent="1" source="88" target="35">
                    <mxGeometry relative="1" as="geometry"/>
                </mxCell>
                <mxCell id="88" value="&lt;span style=&quot;font-size: 13px;&quot;&gt;validateIdentity&lt;/span&gt;" style="rounded=0;whiteSpace=wrap;html=1;fontFamily=Helvetica;fontSize=12;fillColor=#e1d5e7;strokeColor=#9673a6;fillStyle=auto;" vertex="1" parent="1">
                    <mxGeometry x="90" y="560" width="150" height="30" as="geometry"/>
                </mxCell>
                <mxCell id="90" value="给定一个身份 *identity，调用 getCertificateChainForBCCSPIdentity 方法，获取该证书的验证链，验证链中的第二个整数是给定身份中的证书的签发者，检查 msp 本地证书撤销列表，是否存在由该签发者签发的证书撤销列表，如果有的话，检查该列表中是否含有该身份所指向的证书，如果有的话，则说明该身份是被撤销的，不合法，否则继续进行其他步骤的验证。" style="text;html=1;strokeColor=none;fillColor=none;align=left;verticalAlign=middle;whiteSpace=wrap;rounded=0;fontFamily=Helvetica;fontSize=13;" vertex="1" parent="1">
                    <mxGeometry x="-290" y="580" width="270" height="30" as="geometry"/>
                </mxCell>
                <mxCell id="91" value="" style="shape=flexArrow;endArrow=classic;html=1;strokeColor=#9673a6;fontFamily=Helvetica;fontSize=12;fillColor=#e1d5e7;endWidth=12.666666666666666;endSize=5.890000000000001;" edge="1" parent="1">
                    <mxGeometry width="50" height="50" relative="1" as="geometry">
                        <mxPoint x="20" y="590" as="sourcePoint"/>
                        <mxPoint x="-20" y="590" as="targetPoint"/>
                    </mxGeometry>
                </mxCell>
                <mxCell id="92" value="" style="shape=flexArrow;endArrow=classic;html=1;strokeColor=#9673a6;fontFamily=Helvetica;fontSize=12;fillColor=#e1d5e7;endWidth=12.666666666666666;endSize=5.890000000000001;" edge="1" parent="1">
                    <mxGeometry width="50" height="50" relative="1" as="geometry">
                        <mxPoint x="510" y="804.71" as="sourcePoint"/>
                        <mxPoint x="550" y="804.71" as="targetPoint"/>
                    </mxGeometry>
                </mxCell>
                <mxCell id="93" value="" style="shape=flexArrow;endArrow=classic;html=1;strokeColor=#9673a6;fontFamily=Helvetica;fontSize=12;fillColor=#e1d5e7;endWidth=12.666666666666666;endSize=5.890000000000001;" edge="1" parent="1">
                    <mxGeometry width="50" height="50" relative="1" as="geometry">
                        <mxPoint x="680" y="690.0000000000002" as="sourcePoint"/>
                        <mxPoint x="720" y="690.0000000000002" as="targetPoint"/>
                    </mxGeometry>
                </mxCell>
                <mxCell id="94" value="" style="shape=flexArrow;endArrow=classic;html=1;strokeColor=#9673a6;fontFamily=Helvetica;fontSize=12;fillColor=#e1d5e7;endWidth=12.666666666666666;endSize=5.890000000000001;" edge="1" parent="1">
                    <mxGeometry width="50" height="50" relative="1" as="geometry">
                        <mxPoint x="510" y="590.0000000000002" as="sourcePoint"/>
                        <mxPoint x="550" y="590.0000000000002" as="targetPoint"/>
                    </mxGeometry>
                </mxCell>
                <mxCell id="95" value="" style="shape=flexArrow;endArrow=classic;html=1;strokeColor=#9673a6;fontFamily=Helvetica;fontSize=12;fillColor=#e1d5e7;endWidth=12.666666666666666;endSize=5.890000000000001;" edge="1" parent="1">
                    <mxGeometry width="50" height="50" relative="1" as="geometry">
                        <mxPoint x="460" y="439.43000000000023" as="sourcePoint"/>
                        <mxPoint x="500" y="439.43000000000023" as="targetPoint"/>
                    </mxGeometry>
                </mxCell>
                <mxCell id="96" value="" style="shape=flexArrow;endArrow=classic;html=1;strokeColor=#9673a6;fontFamily=Helvetica;fontSize=12;fillColor=#e1d5e7;endWidth=12.666666666666666;endSize=5.890000000000001;" edge="1" parent="1">
                    <mxGeometry width="50" height="50" relative="1" as="geometry">
                        <mxPoint x="460" y="274.76000000000033" as="sourcePoint"/>
                        <mxPoint x="500" y="274.76000000000033" as="targetPoint"/>
                    </mxGeometry>
                </mxCell>
                <mxCell id="97" value="" style="shape=flexArrow;endArrow=classic;html=1;strokeColor=#9673a6;fontFamily=Helvetica;fontSize=12;fillColor=#e1d5e7;endWidth=12.666666666666666;endSize=5.890000000000001;" edge="1" parent="1">
                    <mxGeometry width="50" height="50" relative="1" as="geometry">
                        <mxPoint x="460" y="94.50000000000028" as="sourcePoint"/>
                        <mxPoint x="500" y="94.50000000000028" as="targetPoint"/>
                    </mxGeometry>
                </mxCell>
                <mxCell id="100" value="&lt;font style=&quot;border-color: var(--border-color); color: rgb(51, 51, 51);&quot;&gt;直接调用&amp;nbsp;&lt;/font&gt;&lt;span style=&quot;border-color: var(--border-color); font-size: 13px;&quot;&gt;&lt;span style=&quot;color: rgb(0, 0, 0);&quot;&gt;getCertificateChainForBCCSPIdentity&lt;/span&gt;&amp;nbsp;方法，并返回调用结果&lt;/span&gt;" style="shape=callout;whiteSpace=wrap;html=1;perimeter=calloutPerimeter;fillStyle=auto;fontFamily=Helvetica;fontSize=12;position2=0;size=30;position=0.2;base=30;dashed=1;fillColor=#f5f5f5;fontColor=#333333;strokeColor=#666666;" vertex="1" parent="1">
                    <mxGeometry x="380" y="480" width="300" height="70" as="geometry"/>
                </mxCell>
                <mxCell id="101" value="&lt;font style=&quot;border-color: var(--border-color); color: rgb(51, 51, 51);&quot;&gt;直接调用&amp;nbsp;&lt;/font&gt;&lt;span style=&quot;border-color: var(--border-color); font-size: 13px;&quot;&gt;&lt;span style=&quot;color: rgb(0, 0, 0);&quot;&gt;getCertificateChainForBCCSPIdentity&lt;/span&gt;&amp;nbsp;方法，并返回调用结果&lt;/span&gt;" style="shape=callout;whiteSpace=wrap;html=1;perimeter=calloutPerimeter;fillStyle=auto;fontFamily=Helvetica;fontSize=12;position2=1;size=30;position=0.73;base=30;dashed=1;fillColor=#f5f5f5;fontColor=#333333;strokeColor=#666666;" vertex="1" parent="1">
                    <mxGeometry x="-100" y="480" width="300" height="70" as="geometry"/>
                </mxCell>
                <mxCell id="102" value="&lt;font style=&quot;border-color: var(--border-color); color: rgb(51, 51, 51);&quot;&gt;直接调用&amp;nbsp;&lt;/font&gt;&lt;span style=&quot;border-color: var(--border-color); font-size: 13px;&quot;&gt;&lt;span style=&quot;color: rgb(0, 0, 0);&quot;&gt;getCertificateChain&lt;/span&gt;&amp;nbsp;方法，并获得调用结果&lt;/span&gt;" style="shape=callout;whiteSpace=wrap;html=1;perimeter=calloutPerimeter;fillStyle=auto;fontFamily=Helvetica;fontSize=12;position2=1;size=30;position=0.77;base=30;dashed=1;fillColor=#f5f5f5;fontColor=#333333;strokeColor=#666666;" vertex="1" parent="1">
                    <mxGeometry y="680" width="300" height="70" as="geometry"/>
                </mxCell>
            </root>
        </mxGraphModel>
    </diagram>
</mxfile>